<svg version="1.1" xmlns="http://www.w3.org/2000/svg" viewBox="0 0 3111.079154974551 1813.1851194850626" width="6222.158309949102" height="3626.3702389701252">
  <!-- svg-source:excalidraw -->
  
  <defs>
    <style class="style-fonts">
      @font-face {
        font-family: "Virgil";
        src: url("https://excalidraw.com/Virgil.woff2");
      }
      @font-face {
        font-family: "Cascadia";
        src: url("https://excalidraw.com/Cascadia.woff2");
      }
      @font-face {
        font-family: "Assistant";
        src: url("https://excalidraw.com/Assistant-Regular.woff2");
      }
    </style>
    
  </defs>
  <rect x="0" y="0" width="3111.079154974551" height="1813.1851194850626" fill="#ffffff"></rect><g stroke-linecap="round" transform="translate(1259.0874223104843 343.7206123809755) rotate(0 313.3828125 265.5348521944519)"><path d="M32 0 C193.05 0.69, 352.81 1.47, 594.77 0 M32 0 C171.44 -0.23, 311.56 -0.47, 594.77 0 M594.77 0 C617.28 -1.53, 627.07 10.67, 626.77 32 M594.77 0 C617.23 1.37, 624.76 10.01, 626.77 32 M626.77 32 C625.37 181.54, 626.31 332.15, 626.77 499.07 M626.77 32 C626.67 215.95, 627 400.29, 626.77 499.07 M626.77 499.07 C627.83 521, 616.52 531.28, 594.77 531.07 M626.77 499.07 C626.8 521.43, 614.69 529.75, 594.77 531.07 M594.77 531.07 C371.04 529.37, 146.5 529.56, 32 531.07 M594.77 531.07 C418.23 531.59, 241.75 531.14, 32 531.07 M32 531.07 C11.62 529.36, 1.22 521.96, 0 499.07 M32 531.07 C12.94 531.05, 1.14 518.73, 0 499.07 M0 499.07 C1.12 320.44, 1.72 141.23, 0 32 M0 499.07 C2.18 324.7, 1.95 151.58, 0 32 M0 32 C1.79 8.99, 9.58 -1.05, 32 0 M0 32 C2.27 11.63, 11.46 1.89, 32 0" stroke="#1e1e1e" stroke-width="2" fill="none"></path></g><g transform="translate(1296.252571224295 362.45993334820395) rotate(0 26.3599853515625 12.5)"><text x="0" y="0" font-family="Virgil, Segoe UI Emoji" font-size="20px" fill="#1e1e1e" text-anchor="start" style="white-space: pre;" direction="ltr" dominant-baseline="text-before-edge">Game</text></g><g transform="translate(1303.639289974295 402.45993334820395) rotate(0 277.1697998046875 187.5)"><text x="0" y="0" font-family="Virgil, Segoe UI Emoji" font-size="20px" fill="#1e1e1e" text-anchor="start" style="white-space: pre;" direction="ltr" dominant-baseline="text-before-edge">Resp: Controls the Game. Represents an instance of a </text><text x="0" y="25" font-family="Virgil, Segoe UI Emoji" font-size="20px" fill="#1e1e1e" text-anchor="start" style="white-space: pre;" direction="ltr" dominant-baseline="text-before-edge">game</text><text x="0" y="50" font-family="Virgil, Segoe UI Emoji" font-size="20px" fill="#1e1e1e" text-anchor="start" style="white-space: pre;" direction="ltr" dominant-baseline="text-before-edge"></text><text x="0" y="75" font-family="Virgil, Segoe UI Emoji" font-size="20px" fill="#1e1e1e" text-anchor="start" style="white-space: pre;" direction="ltr" dominant-baseline="text-before-edge"></text><text x="0" y="100" font-family="Virgil, Segoe UI Emoji" font-size="20px" fill="#1e1e1e" text-anchor="start" style="white-space: pre;" direction="ltr" dominant-baseline="text-before-edge">- board.</text><text x="0" y="125" font-family="Virgil, Segoe UI Emoji" font-size="20px" fill="#1e1e1e" text-anchor="start" style="white-space: pre;" direction="ltr" dominant-baseline="text-before-edge">- players</text><text x="0" y="150" font-family="Virgil, Segoe UI Emoji" font-size="20px" fill="#1e1e1e" text-anchor="start" style="white-space: pre;" direction="ltr" dominant-baseline="text-before-edge">- state: GameState</text><text x="0" y="175" font-family="Virgil, Segoe UI Emoji" font-size="20px" fill="#1e1e1e" text-anchor="start" style="white-space: pre;" direction="ltr" dominant-baseline="text-before-edge">- nextPlayer: Color (null for representing in progress)</text><text x="0" y="200" font-family="Virgil, Segoe UI Emoji" font-size="20px" fill="#1e1e1e" text-anchor="start" style="white-space: pre;" direction="ltr" dominant-baseline="text-before-edge">- .</text><text x="0" y="225" font-family="Virgil, Segoe UI Emoji" font-size="20px" fill="#1e1e1e" text-anchor="start" style="white-space: pre;" direction="ltr" dominant-baseline="text-before-edge"></text><text x="0" y="250" font-family="Virgil, Segoe UI Emoji" font-size="20px" fill="#1e1e1e" text-anchor="start" style="white-space: pre;" direction="ltr" dominant-baseline="text-before-edge"></text><text x="0" y="275" font-family="Virgil, Segoe UI Emoji" font-size="20px" fill="#1e1e1e" text-anchor="start" style="white-space: pre;" direction="ltr" dominant-baseline="text-before-edge">- Game(whitePlayer, blackPlayer)</text><text x="0" y="300" font-family="Virgil, Segoe UI Emoji" font-size="20px" fill="#1e1e1e" text-anchor="start" style="white-space: pre;" direction="ltr" dominant-baseline="text-before-edge">- synchronized makeMove(player, IMove move)</text><text x="0" y="325" font-family="Virgil, Segoe UI Emoji" font-size="20px" fill="#1e1e1e" text-anchor="start" style="white-space: pre;" direction="ltr" dominant-baseline="text-before-edge">- .</text><text x="0" y="350" font-family="Virgil, Segoe UI Emoji" font-size="20px" fill="#1e1e1e" text-anchor="start" style="white-space: pre;" direction="ltr" dominant-baseline="text-before-edge">- .</text></g><g stroke-linecap="round" transform="translate(2362.930550637965 405.8032055930445) rotate(0 164.7005572417761 163.54179186793536)"><path d="M32 0 C104 -1.64, 176.31 0.15, 297.4 0 M32 0 C117.39 -0.47, 203.39 0.69, 297.4 0 M297.4 0 C318.67 -1.62, 329.76 12.25, 329.4 32 M297.4 0 C316.7 -0.18, 328.25 12.13, 329.4 32 M329.4 32 C330.46 123.89, 329.86 220.04, 329.4 295.08 M329.4 32 C330.19 86.22, 329.91 140.29, 329.4 295.08 M329.4 295.08 C329.48 317.7, 319.33 328.41, 297.4 327.08 M329.4 295.08 C329.76 317.84, 319.04 328.7, 297.4 327.08 M297.4 327.08 C214.84 325.2, 132.51 323.67, 32 327.08 M297.4 327.08 C230.13 326.28, 162.75 325.5, 32 327.08 M32 327.08 C11.6 326.3, 0.22 314.49, 0 295.08 M32 327.08 C12.29 329.32, -1.11 317.06, 0 295.08 M0 295.08 C2.47 240.57, 2.93 183.4, 0 32 M0 295.08 C-0.25 226.16, 0.33 157.04, 0 32 M0 32 C-0.69 10.61, 9.61 -0.22, 32 0 M0 32 C-0.66 10.45, 11.52 -2.11, 32 0" stroke="#1e1e1e" stroke-width="2" fill="none"></path></g><g transform="translate(2377.056386200894 435.98423768724297) rotate(0 149.73988342285156 37.5)"><text x="0" y="0" font-family="Virgil, Segoe UI Emoji" font-size="20px" fill="#1e1e1e" text-anchor="start" style="white-space: pre;" direction="ltr" dominant-baseline="text-before-edge">Board</text><text x="0" y="25" font-family="Virgil, Segoe UI Emoji" font-size="20px" fill="#1e1e1e" text-anchor="start" style="white-space: pre;" direction="ltr" dominant-baseline="text-before-edge">Resp: Represents an instance </text><text x="0" y="50" font-family="Virgil, Segoe UI Emoji" font-size="20px" fill="#1e1e1e" text-anchor="start" style="white-space: pre;" direction="ltr" dominant-baseline="text-before-edge">of board.</text></g><g stroke-linecap="round"><g transform="translate(1889.8509548282368 510.58746417325045) rotate(0 236.59166755809417 0.1190731005150667)"><path d="M-0.35 -0.21 C78.44 -0.23, 394.97 -0.57, 473.71 -0.36 M1.66 -1.36 C80.26 -1.21, 394.25 0.78, 473.03 0.87" stroke="#1e1e1e" stroke-width="2" fill="none"></path></g><g transform="translate(1889.8509548282368 510.58746417325045) rotate(0 236.59166755809417 0.1190731005150667)"><path d="M449.51 9.32 C458.08 7.07, 466.33 1.15, 473.03 0.87 M449.51 9.32 C458.65 6.59, 467.51 4.15, 473.03 0.87" stroke="#1e1e1e" stroke-width="2" fill="none"></path></g><g transform="translate(1889.8509548282368 510.58746417325045) rotate(0 236.59166755809417 0.1190731005150667)"><path d="M449.58 -7.78 C458.09 -3.57, 466.31 -3.02, 473.03 0.87 M449.58 -7.78 C458.76 -4.22, 467.6 -0.36, 473.03 0.87" stroke="#1e1e1e" stroke-width="2" fill="none"></path></g></g><mask></mask><g stroke-linecap="round" transform="translate(542.1236211897656 396.2998907900686) rotate(0 155.14585175257378 135.00897377682486)"><path d="M32 0 C94.51 0.53, 160.37 0.44, 278.29 0 M32 0 C90.06 -1.23, 149.13 -1.92, 278.29 0 M278.29 0 C298.74 -0.23, 312.21 11.45, 310.29 32 M278.29 0 C298.91 -0.52, 312.22 12.94, 310.29 32 M310.29 32 C312.1 89.68, 309.65 145.89, 310.29 238.02 M310.29 32 C312.1 102.29, 312.16 174.05, 310.29 238.02 M310.29 238.02 C309.64 260.87, 301.24 270.68, 278.29 270.02 M310.29 238.02 C311.68 259.61, 301.01 271.01, 278.29 270.02 M278.29 270.02 C201.33 270.88, 123.73 269.79, 32 270.02 M278.29 270.02 C189.14 268.97, 99.14 268.85, 32 270.02 M32 270.02 C11.29 271.88, -0.88 260.38, 0 238.02 M32 270.02 C11.59 271.49, -1.44 261.61, 0 238.02 M0 238.02 C-0.28 188.8, 2.18 140.54, 0 32 M0 238.02 C1.34 181.37, 1.03 126.7, 0 32 M0 32 C-0.52 12.1, 9.44 -0.9, 32 0 M0 32 C0.05 12.77, 12.24 1.85, 32 0" stroke="#1e1e1e" stroke-width="2" fill="none"></path></g><g transform="translate(565.3182626976306 423.7643109088418) rotate(0 30.369972229003906 12.5)"><text x="0" y="0" font-family="Virgil, Segoe UI Emoji" font-size="20px" fill="#1e1e1e" text-anchor="start" style="white-space: pre;" direction="ltr" dominant-baseline="text-before-edge">Player</text></g><g stroke-linecap="round"><g transform="translate(1255.0102942006224 513.3402835099548) rotate(0 -199.2418121192169 -10.023120092128778)"><path d="M0.5 -0.22 C-66.08 -3.57, -332.63 -17.71, -399.29 -20.86 M-0.69 -1.37 C-66.92 -4.54, -330.93 -16.48, -397 -19.75" stroke="#1e1e1e" stroke-width="2" fill="none"></path></g><g transform="translate(1255.0102942006224 513.3402835099548) rotate(0 -199.2418121192169 -10.023120092128778)"><path d="M-373.13 -27.19 C-381.15 -26.06, -389.77 -23.99, -397 -19.75 M-373.13 -27.19 C-381.2 -23.48, -391.18 -20.89, -397 -19.75" stroke="#1e1e1e" stroke-width="2" fill="none"></path></g><g transform="translate(1255.0102942006224 513.3402835099548) rotate(0 -199.2418121192169 -10.023120092128778)"><path d="M-373.94 -10.11 C-381.6 -14.43, -389.96 -17.81, -397 -19.75 M-373.94 -10.11 C-381.56 -12.79, -391.23 -16.59, -397 -19.75" stroke="#1e1e1e" stroke-width="2" fill="none"></path></g></g><mask></mask><g transform="translate(565.3182626976306 480.54682126689386) rotate(0 32.249977111816406 25)"><text x="0" y="0" font-family="Virgil, Segoe UI Emoji" font-size="20px" fill="#1e1e1e" text-anchor="start" style="white-space: pre;" direction="ltr" dominant-baseline="text-before-edge">- id</text><text x="0" y="25" font-family="Virgil, Segoe UI Emoji" font-size="20px" fill="#1e1e1e" text-anchor="start" style="white-space: pre;" direction="ltr" dominant-baseline="text-before-edge">- name</text></g><g stroke-linecap="round" transform="translate(888.8616666481729 993.7236157914622) rotate(0 176.22936895652947 149.18875803197454)"><path d="M32 0 C118.11 0.36, 204.54 -1.03, 320.46 0 M32 0 C122.26 -0.17, 212.87 -0.22, 320.46 0 M320.46 0 C341.75 0.62, 352.77 12.43, 352.46 32 M320.46 0 C341.98 0.41, 354.32 10.13, 352.46 32 M352.46 32 C352.95 90.9, 352.43 148.06, 352.46 266.38 M352.46 32 C354.13 113.72, 354.47 195.68, 352.46 266.38 M352.46 266.38 C351.6 286.75, 341.6 300.21, 320.46 298.38 M352.46 266.38 C350.38 287.29, 342.99 298.15, 320.46 298.38 M320.46 298.38 C247.79 299.94, 175.75 297.49, 32 298.38 M320.46 298.38 C252.38 297.09, 184.11 296.85, 32 298.38 M32 298.38 C9.06 298.8, -0.38 289.38, 0 266.38 M32 298.38 C10 299.69, 1.26 289.4, 0 266.38 M0 266.38 C0.39 175.42, -1.3 85.78, 0 32 M0 266.38 C-1.8 184.51, -1.35 102.57, 0 32 M0 32 C-1.36 12.57, 10.8 -0.95, 32 0 M0 32 C1.14 9.49, 9.56 0.74, 32 0" stroke="#1e1e1e" stroke-width="2" fill="none"></path></g><g transform="translate(992.1918933655878 1025.6796212022296) rotate(0 29.3499755859375 12.5)"><text x="0" y="0" font-family="Virgil, Segoe UI Emoji" font-size="20px" fill="#1e1e1e" text-anchor="start" style="white-space: pre;" direction="ltr" dominant-baseline="text-before-edge">IMove</text></g><g stroke-linecap="round" transform="translate(2483.5008578170964 85.29585027736863) rotate(0 176.110543948805 109.7982679712305)"><path d="M32 0 C145.97 -0.34, 257.81 1.05, 320.22 0 M32 0 C126.27 2.13, 221.56 1.61, 320.22 0 M320.22 0 C339.71 -0.75, 351.2 9.77, 352.22 32 M320.22 0 C339.74 -0.9, 351.72 12.93, 352.22 32 M352.22 32 C353.75 86.74, 354.61 142.82, 352.22 187.6 M352.22 32 C354.1 76.62, 353.66 120.83, 352.22 187.6 M352.22 187.6 C351.23 208.88, 342.04 219, 320.22 219.6 M352.22 187.6 C352.07 209.24, 342.59 219.52, 320.22 219.6 M320.22 219.6 C258.33 221.92, 198.19 219.02, 32 219.6 M320.22 219.6 C255.94 220.79, 192.06 220.08, 32 219.6 M32 219.6 C10.14 221.32, -0.44 208.77, 0 187.6 M32 219.6 C12.19 221.05, -2.06 207.02, 0 187.6 M0 187.6 C0.45 141.54, -1.4 97.71, 0 32 M0 187.6 C-0.43 147.46, -1.19 106.47, 0 32 M0 32 C-1.84 11.92, 11.07 -0.08, 32 0 M0 32 C-2.03 12.81, 12.83 0.36, 32 0" stroke="#1e1e1e" stroke-width="2" fill="none"></path></g><g transform="translate(2566.5726375555537 127.19475355435878) rotate(0 57.49994659423828 50)"><text x="0" y="0" font-family="Virgil, Segoe UI Emoji" font-size="20px" fill="#1e1e1e" text-anchor="start" style="white-space: pre;" direction="ltr" dominant-baseline="text-before-edge">Color&lt;enum&gt;</text><text x="0" y="25" font-family="Virgil, Segoe UI Emoji" font-size="20px" fill="#1e1e1e" text-anchor="start" style="white-space: pre;" direction="ltr" dominant-baseline="text-before-edge"></text><text x="0" y="50" font-family="Virgil, Segoe UI Emoji" font-size="20px" fill="#1e1e1e" text-anchor="start" style="white-space: pre;" direction="ltr" dominant-baseline="text-before-edge">WHItE(0)</text><text x="0" y="75" font-family="Virgil, Segoe UI Emoji" font-size="20px" fill="#1e1e1e" text-anchor="start" style="white-space: pre;" direction="ltr" dominant-baseline="text-before-edge">BLACK(1)</text></g><g stroke-linecap="round" transform="translate(428.5843176840891 1368.0584847304974) rotate(0 129.37475641788728 129.90751766756694)"><path d="M32 0 C78.89 0.65, 123.49 -2.51, 226.75 0 M32 0 C101.85 0.98, 173.14 1.74, 226.75 0 M226.75 0 C246.89 0.39, 260.55 11.4, 258.75 32 M226.75 0 C247.13 -1.54, 260.27 8.65, 258.75 32 M258.75 32 C259.98 95.54, 260.83 156.46, 258.75 227.82 M258.75 32 C257.03 101.48, 256.27 171.66, 258.75 227.82 M258.75 227.82 C260.16 250.83, 246.81 258.8, 226.75 259.82 M258.75 227.82 C258.93 248.67, 246.64 260.46, 226.75 259.82 M226.75 259.82 C162.84 260.12, 100.71 261.04, 32 259.82 M226.75 259.82 C169.57 260.69, 115.07 261.53, 32 259.82 M32 259.82 C8.77 259.73, 0.51 250.58, 0 227.82 M32 259.82 C9.8 258.32, -1.09 251.16, 0 227.82 M0 227.82 C-0.31 180.15, 0.35 134.1, 0 32 M0 227.82 C-0.86 172.24, -0.92 116.6, 0 32 M0 32 C-1.58 10.51, 10.95 1.64, 32 0 M0 32 C-1.35 10.35, 12.47 -1.15, 32 0" stroke="#1e1e1e" stroke-width="2" fill="none"></path></g><g transform="translate(464.300878226201 1402.567863712641) rotate(0 55.80995178222656 12.5)"><text x="0" y="0" font-family="Virgil, Segoe UI Emoji" font-size="20px" fill="#1e1e1e" text-anchor="start" style="white-space: pre;" direction="ltr" dominant-baseline="text-before-edge">NormalMove</text></g><g transform="translate(910.5146009637266 1074.6086611352368) rotate(0 81.169921875 12.5)"><text x="0" y="0" font-family="Virgil, Segoe UI Emoji" font-size="20px" fill="#1e1e1e" text-anchor="start" style="white-space: pre;" direction="ltr" dominant-baseline="text-before-edge">Represents move</text></g><g stroke-linecap="round" transform="translate(1998.7556404095421 1536.2582561186969) rotate(0 199.216792450286 133.46343168318288)"><path d="M32 0 C155.65 -2.61, 277.68 -1.69, 366.43 0 M32 0 C158.9 -1.47, 285.18 -0.79, 366.43 0 M366.43 0 C388.1 -0.38, 398.78 11.49, 398.43 32 M366.43 0 C387.48 0.29, 397.57 9.9, 398.43 32 M398.43 32 C397.94 97.29, 397.43 163.15, 398.43 234.93 M398.43 32 C399.95 93.87, 399.49 156.05, 398.43 234.93 M398.43 234.93 C396.69 256.34, 385.78 266.53, 366.43 266.93 M398.43 234.93 C398.25 257.89, 386.2 265.34, 366.43 266.93 M366.43 266.93 C266.04 266.33, 167.03 266.43, 32 266.93 M366.43 266.93 C271.17 267.81, 175.06 267.33, 32 266.93 M32 266.93 C11.33 267.35, 1.32 258.07, 0 234.93 M32 266.93 C11.28 265.83, 1.54 258.46, 0 234.93 M0 234.93 C-2.35 160.87, 0.43 87.79, 0 32 M0 234.93 C0.17 192.71, 0.31 151.14, 0 32 M0 32 C-0.3 10.44, 9.59 -0.84, 32 0 M0 32 C-1.94 9.63, 11.81 1.32, 32 0" stroke="#1e1e1e" stroke-width="2" fill="none"></path></g><g transform="translate(2077.856559692882 1564.0289560591486) rotate(0 73.36993408203125 12.5)"><text x="0" y="0" font-family="Virgil, Segoe UI Emoji" font-size="20px" fill="#1e1e1e" text-anchor="start" style="white-space: pre;" direction="ltr" dominant-baseline="text-before-edge">IMoveExecutor</text></g><g stroke-linecap="round" transform="translate(1706.0805157622767 1160.456629120145) rotate(0 202.6501503203857 113.53476418762239)"><path d="M32 0 C130.41 1.62, 232.18 1.51, 373.3 0 M32 0 C153.66 1.79, 274.02 1.47, 373.3 0 M373.3 0 C393.11 -0.54, 403.46 9.43, 405.3 32 M373.3 0 C393.66 1.8, 404.48 12.54, 405.3 32 M405.3 32 C403.6 93.82, 405.44 153.51, 405.3 195.07 M405.3 32 C403.33 65.94, 404.74 99.67, 405.3 195.07 M405.3 195.07 C406.16 216.73, 394.39 225.86, 373.3 227.07 M405.3 195.07 C407.42 215.76, 395.25 227.41, 373.3 227.07 M373.3 227.07 C270.5 224.36, 167.68 225.69, 32 227.07 M373.3 227.07 C258.89 229.24, 143.87 229.2, 32 227.07 M32 227.07 C11.82 227.89, -0.68 217.45, 0 195.07 M32 227.07 C10.1 225.31, 0.7 216.95, 0 195.07 M0 195.07 C-1.17 144.94, -1.99 93.96, 0 32 M0 195.07 C0.76 151.43, 0.19 107.59, 0 32 M0 32 C-0.69 10.27, 10.36 0.37, 32 0 M0 32 C1.34 9.98, 10.77 0.53, 32 0" stroke="#1e1e1e" stroke-width="2" fill="none"></path></g><g transform="translate(1742.3728420952361 1183.7765481494182) rotate(0 106.60990142822266 12.5)"><text x="0" y="0" font-family="Virgil, Segoe UI Emoji" font-size="20px" fill="#1e1e1e" text-anchor="start" style="white-space: pre;" direction="ltr" dominant-baseline="text-before-edge">CastlingMoveExecutor</text></g><g stroke-linecap="round"><g transform="translate(666.5906085920227 1365.2575574010784) rotate(0 115.76796598808528 -49.2610895114384)"><path d="M-0.19 -0.54 C38.22 -17.03, 192.73 -82.05, 231.35 -98.56" stroke="#1e1e1e" stroke-width="2.5" fill="none" stroke-dasharray="8 10"></path></g><g transform="translate(666.5906085920227 1365.2575574010784) rotate(0 115.76796598808528 -49.2610895114384)"><path d="M213.05 -81.52 C218.94 -88.19, 226.63 -94.26, 231.35 -98.56" stroke="#1e1e1e" stroke-width="2.5" fill="none"></path></g><g transform="translate(666.5906085920227 1365.2575574010784) rotate(0 115.76796598808528 -49.2610895114384)"><path d="M206.38 -97.27 C214.81 -98.03, 225 -98.21, 231.35 -98.56" stroke="#1e1e1e" stroke-width="2.5" fill="none"></path></g></g><mask></mask><g transform="translate(2021.853327602903 1624.699124156626) rotate(0 63.87994384765625 25)"><text x="0" y="0" font-family="Virgil, Segoe UI Emoji" font-size="20px" fill="#1e1e1e" text-anchor="start" style="white-space: pre;" direction="ltr" dominant-baseline="text-before-edge">- isValid()</text><text x="0" y="25" font-family="Virgil, Segoe UI Emoji" font-size="20px" fill="#1e1e1e" text-anchor="start" style="white-space: pre;" direction="ltr" dominant-baseline="text-before-edge">- makeMove()</text></g><g stroke-linecap="round" transform="translate(851.479867913505 1416.6955385185636) rotate(0 155.26069660362077 158.51479065572403)"><path d="M32 0 C110.69 -0.42, 190.26 2.62, 278.52 0 M32 0 C125.56 -1.54, 220.1 -1.06, 278.52 0 M278.52 0 C300.9 -1.56, 310.93 9.35, 310.52 32 M278.52 0 C298.54 -1.82, 309.33 11.09, 310.52 32 M310.52 32 C308.34 112.91, 308.18 193.43, 310.52 285.03 M310.52 32 C309.16 111.35, 308.6 192.07, 310.52 285.03 M310.52 285.03 C311.87 304.97, 298.7 319, 278.52 317.03 M310.52 285.03 C309.35 306.07, 298.22 316.16, 278.52 317.03 M278.52 317.03 C214.38 319.51, 146.64 319.52, 32 317.03 M278.52 317.03 C207.11 315.12, 134.28 315.02, 32 317.03 M32 317.03 C9.42 315.74, -1.41 307.98, 0 285.03 M32 317.03 C11.93 316.61, 1.52 306.06, 0 285.03 M0 285.03 C0.02 197.95, -1.01 108.39, 0 32 M0 285.03 C-0.33 198.71, -0.25 112.71, 0 32 M0 32 C0.68 9.27, 9.78 -0.52, 32 0 M0 32 C-2.19 12.57, 11.57 0.89, 32 0" stroke="#1e1e1e" stroke-width="2" fill="none"></path></g><g transform="translate(888.4325213791261 1456.2854969675889) rotate(0 62.589942932128906 12.5)"><text x="0" y="0" font-family="Virgil, Segoe UI Emoji" font-size="20px" fill="#1e1e1e" text-anchor="start" style="white-space: pre;" direction="ltr" dominant-baseline="text-before-edge">CastlingMove</text></g><g stroke-linecap="round" transform="translate(1233.8277887761315 1435.9500962756113) rotate(0 92.95284718580365 100.81918658906739)"><path d="M32 0 C74.16 -1.28, 117.22 -1.06, 153.91 0 M32 0 C61.64 1.38, 92.76 0.87, 153.91 0 M153.91 0 C176.23 -1.34, 187.07 10.16, 185.91 32 M153.91 0 C176.24 1.27, 184.68 10.95, 185.91 32 M185.91 32 C186.61 68.04, 186.38 104.01, 185.91 169.64 M185.91 32 C185.91 72.31, 185.56 113.41, 185.91 169.64 M185.91 169.64 C185.73 192.72, 173.86 202.47, 153.91 201.64 M185.91 169.64 C188.01 191.41, 175.07 203.27, 153.91 201.64 M153.91 201.64 C106.38 200.15, 59.51 200.37, 32 201.64 M153.91 201.64 C120.86 200.91, 87.37 201.42, 32 201.64 M32 201.64 C9.71 203.13, 1.52 191.4, 0 169.64 M32 201.64 C8.63 201.46, 1.24 188.81, 0 169.64 M0 169.64 C0.59 123.39, 0.88 77.9, 0 32 M0 169.64 C-0.81 121.84, -0.25 74.37, 0 32 M0 32 C1.59 12.22, 10.35 -1.87, 32 0 M0 32 C-2.19 12.1, 8.55 1.92, 32 0" stroke="#1e1e1e" stroke-width="2" fill="none"></path></g><g transform="translate(1247.786593956493 1476.5088863334147) rotate(0 68.03994750976562 12.5)"><text x="0" y="0" font-family="Virgil, Segoe UI Emoji" font-size="20px" fill="#1e1e1e" text-anchor="start" style="white-space: pre;" direction="ltr" dominant-baseline="text-before-edge">ExchangeMove</text></g><g stroke-linecap="round"><g transform="translate(1021.2092814882893 1414.9393607761588) rotate(0 3.0140628381759598 -65.00896016694855)"><path d="M0.57 -1.11 C1.2 -22.77, 3.87 -108.5, 4.85 -129.82" stroke="#1e1e1e" stroke-width="2.5" fill="none" stroke-dasharray="8 10"></path></g><g transform="translate(1021.2092814882893 1414.9393607761588) rotate(0 3.0140628381759598 -65.00896016694855)"><path d="M12.52 -106.02 C7.65 -117.24, 6.83 -123.88, 4.85 -129.82" stroke="#1e1e1e" stroke-width="2.5" fill="none"></path></g><g transform="translate(1021.2092814882893 1414.9393607761588) rotate(0 3.0140628381759598 -65.00896016694855)"><path d="M-4.57 -106.66 C-2.77 -117.71, 3.09 -124.1, 4.85 -129.82" stroke="#1e1e1e" stroke-width="2.5" fill="none"></path></g></g><mask></mask><g stroke-linecap="round"><g transform="translate(1290.572917431487 1436.457095675314) rotate(0 -52.82813565258607 -68.10202061983466)"><path d="M0.28 0.54 C-17.35 -22.11, -87.08 -112.29, -104.93 -135.01" stroke="#1e1e1e" stroke-width="2.5" fill="none" stroke-dasharray="8 10"></path></g><g transform="translate(1290.572917431487 1436.457095675314) rotate(0 -52.82813565258607 -68.10202061983466)"><path d="M-83.75 -121.73 C-90.82 -125.41, -97.61 -133.5, -104.93 -135.01" stroke="#1e1e1e" stroke-width="2.5" fill="none"></path></g><g transform="translate(1290.572917431487 1436.457095675314) rotate(0 -52.82813565258607 -68.10202061983466)"><path d="M-97.25 -111.23 C-99.38 -118.84, -101.16 -130.84, -104.93 -135.01" stroke="#1e1e1e" stroke-width="2.5" fill="none"></path></g></g><mask></mask><g transform="translate(2380.678607964163 527.8799631981738) rotate(0 112.61991119384766 25)"><text x="0" y="0" font-family="Virgil, Segoe UI Emoji" font-size="20px" fill="#1e1e1e" text-anchor="start" style="white-space: pre;" direction="ltr" dominant-baseline="text-before-edge">- matrix: IPiece[8][8]</text><text x="0" y="25" font-family="Virgil, Segoe UI Emoji" font-size="20px" fill="#1e1e1e" text-anchor="start" style="white-space: pre;" direction="ltr" dominant-baseline="text-before-edge"></text></g><g stroke-linecap="round" transform="translate(2899.201706780215 110.92481796427961) rotate(0 100.938724097168 63.78878951847028)"><path d="M31.89 0 C68.11 -0.72, 105.62 1.18, 169.98 0 M31.89 0 C61.05 -1.37, 89.51 -0.46, 169.98 0 M169.98 0 C191.72 -0.22, 200.23 9.45, 201.88 31.89 M169.98 0 C191.9 0.99, 199.78 9.74, 201.88 31.89 M201.88 31.89 C201.64 45.92, 201.84 59.75, 201.88 95.68 M201.88 31.89 C201.85 57.25, 202.18 81.27, 201.88 95.68 M201.88 95.68 C200.85 117.82, 191.96 127.91, 169.98 127.58 M201.88 95.68 C203.79 118.49, 190.2 127.18, 169.98 127.58 M169.98 127.58 C129.18 126.97, 90.63 130.04, 31.89 127.58 M169.98 127.58 C142.15 127.83, 112.87 127.22, 31.89 127.58 M31.89 127.58 C9.56 127.41, 1.77 118.1, 0 95.68 M31.89 127.58 C8.73 126.58, -0.91 119.14, 0 95.68 M0 95.68 C-0.39 77.44, -1.16 59.58, 0 31.89 M0 95.68 C-0.23 76.17, 1.42 55.94, 0 31.89 M0 31.89 C0.28 9.86, 10.73 -1.38, 31.89 0 M0 31.89 C-0.55 12.53, 9.99 0.91, 31.89 0" stroke="#1e1e1e" stroke-width="2" fill="none"></path></g><g transform="translate(2919.1914418897563 129.77811602288358) rotate(0 41.26996612548828 25)"><text x="0" y="0" font-family="Virgil, Segoe UI Emoji" font-size="20px" fill="#1e1e1e" text-anchor="start" style="white-space: pre;" direction="ltr" dominant-baseline="text-before-edge">Location</text><text x="0" y="25" font-family="Virgil, Segoe UI Emoji" font-size="20px" fill="#1e1e1e" text-anchor="start" style="white-space: pre;" direction="ltr" dominant-baseline="text-before-edge">int x, y</text></g><g stroke-linecap="round" transform="translate(2742.232725875645 1187.952902187841) rotate(0 123.88319553914721 61.015112648385525)"><path d="M30.51 0 C82.15 1.91, 138.21 2.42, 217.26 0 M30.51 0 C68.67 0.34, 109.34 0.67, 217.26 0 M217.26 0 C236.1 1.25, 247.46 10.5, 247.77 30.51 M217.26 0 C236.14 0.89, 246.83 7.9, 247.77 30.51 M247.77 30.51 C248.24 53.78, 246.83 78.44, 247.77 91.52 M247.77 30.51 C248.54 43.98, 247.78 56.14, 247.77 91.52 M247.77 91.52 C247.86 111.72, 236.61 123, 217.26 122.03 M247.77 91.52 C247.46 111.71, 236.2 123.04, 217.26 122.03 M217.26 122.03 C165.48 123.08, 114.93 122.1, 30.51 122.03 M217.26 122.03 C152.76 122.43, 86.85 122.3, 30.51 122.03 M30.51 122.03 C10.72 122.06, -0.24 111.05, 0 91.52 M30.51 122.03 C11.11 121.75, -1.02 111.89, 0 91.52 M0 91.52 C-1.15 69.6, 2.12 49.95, 0 30.51 M0 91.52 C0.32 74.11, -0.35 54.52, 0 30.51 M0 30.51 C-0.52 8.23, 9.01 -0.92, 30.51 0 M0 30.51 C-0.62 7.93, 9.64 -1.97, 30.51 0" stroke="#1e1e1e" stroke-width="2" fill="none"></path></g><g transform="translate(2761.16692284296 1210.3503429137752) rotate(0 30.20996856689453 12.5)"><text x="0" y="0" font-family="Virgil, Segoe UI Emoji" font-size="20px" fill="#1e1e1e" text-anchor="start" style="white-space: pre;" direction="ltr" dominant-baseline="text-before-edge">IPiece</text></g><g transform="translate(2759.194530402011 1258.67395771703) rotate(0 52.479949951171875 12.5)"><text x="0" y="0" font-family="Virgil, Segoe UI Emoji" font-size="20px" fill="#1e1e1e" text-anchor="start" style="white-space: pre;" direction="ltr" dominant-baseline="text-before-edge">Color color</text></g><g stroke-linecap="round" transform="translate(2746.949362607932 1436.8707524166787) rotate(0 58.14439178986913 46.92194193134935)"><path d="M23.46 0 C36.53 0.22, 49.42 -0.99, 92.83 0 M23.46 0 C40.87 0.94, 56.6 0.15, 92.83 0 M92.83 0 C107.51 -1.7, 116.67 8.92, 116.29 23.46 M92.83 0 C110.73 -1.42, 115.12 9.99, 116.29 23.46 M116.29 23.46 C115.48 33.7, 118.59 44.47, 116.29 70.38 M116.29 23.46 C115.79 33.74, 116.73 42.14, 116.29 70.38 M116.29 70.38 C117.86 86.16, 110.06 92.18, 92.83 93.84 M116.29 70.38 C115.16 86.17, 110.56 94.96, 92.83 93.84 M92.83 93.84 C66.34 92.2, 44.25 94.96, 23.46 93.84 M92.83 93.84 C67.42 92.32, 44.28 94.13, 23.46 93.84 M23.46 93.84 C9.37 92.24, 1.67 87.43, 0 70.38 M23.46 93.84 C5.75 91.67, 1.11 86.92, 0 70.38 M0 70.38 C1.14 54.66, -0.22 42.32, 0 23.46 M0 70.38 C0.03 58.54, -0.07 47.01, 0 23.46 M0 23.46 C-0.76 5.87, 9.39 1.01, 23.46 0 M0 23.46 C-1.3 6.02, 9.92 1.58, 23.46 0" stroke="#1e1e1e" stroke-width="2" fill="none"></path></g><g transform="translate(2783.580902763069 1476.0927075785194) rotate(0 24.03998565673828 12.5)"><text x="0" y="0" font-family="Virgil, Segoe UI Emoji" font-size="20px" fill="#1e1e1e" text-anchor="start" style="white-space: pre;" direction="ltr" dominant-baseline="text-before-edge">Pawn</text></g><g stroke-linecap="round" transform="translate(2939.9245849477074 1447.8938762961754) rotate(0 53.20388805001721 42.483765550373164)"><path d="M21.24 0 C42.51 -1.12, 66.7 -0.81, 85.17 0 M21.24 0 C38.35 1.16, 55.76 -0.77, 85.17 0 M85.17 0 C99.02 1.26, 105.22 5.75, 106.41 21.24 M85.17 0 C100.73 1.06, 107.71 8.89, 106.41 21.24 M106.41 21.24 C104.58 34.99, 106.73 49.77, 106.41 63.73 M106.41 21.24 C106.87 30.45, 106.77 39.83, 106.41 63.73 M106.41 63.73 C107.92 77.5, 100.37 85.35, 85.17 84.97 M106.41 63.73 C107.13 76.96, 101.34 86.35, 85.17 84.97 M85.17 84.97 C61.9 86.08, 34.46 86.47, 21.24 84.97 M85.17 84.97 C71.06 85.42, 57.14 85.53, 21.24 84.97 M21.24 84.97 C8.57 86, -1.97 77.56, 0 63.73 M21.24 84.97 C5.81 85.37, 0.87 76.56, 0 63.73 M0 63.73 C0.56 45.34, 0.02 29.61, 0 21.24 M0 63.73 C-0.33 53.99, -0.71 41.97, 0 21.24 M0 21.24 C0.5 6.46, 6.81 -0.57, 21.24 0 M0 21.24 C0.42 7.03, 7.34 0.55, 21.24 0" stroke="#1e1e1e" stroke-width="2" fill="none"></path></g><g transform="translate(2957.4775011811503 1467.3248118599606) rotate(0 22.72998046875 12.5)"><text x="0" y="0" font-family="Virgil, Segoe UI Emoji" font-size="20px" fill="#1e1e1e" text-anchor="start" style="white-space: pre;" direction="ltr" dominant-baseline="text-before-edge">Rook</text></g><g stroke-linecap="round" transform="translate(10 10) rotate(0 280.7581489394875 168.65182625027876)"><path d="M32 0 C164.9 2.4, 299.11 1.08, 529.52 0 M32 0 C198.32 1.71, 365.42 1.62, 529.52 0 M529.52 0 C549.25 1.7, 563.43 12.08, 561.52 32 M529.52 0 C552.47 -0.1, 562.25 10.35, 561.52 32 M561.52 32 C559.65 141.78, 560.64 249, 561.52 305.3 M561.52 32 C561.83 99.53, 562.07 167.38, 561.52 305.3 M561.52 305.3 C559.83 328.04, 549.32 339.03, 529.52 337.3 M561.52 305.3 C562.35 327.54, 550.58 335.91, 529.52 337.3 M529.52 337.3 C427.61 337.6, 324.52 336.47, 32 337.3 M529.52 337.3 C418.8 338.03, 307.59 337.5, 32 337.3 M32 337.3 C12.24 335.54, 0.37 325.38, 0 305.3 M32 337.3 C9.81 335.28, -1.19 327.3, 0 305.3 M0 305.3 C1.01 232.95, 1.44 161.47, 0 32 M0 305.3 C-1.94 215.71, -1.98 127.93, 0 32 M0 32 C-1.95 11.14, 9.52 0.76, 32 0 M0 32 C1.54 10.58, 12.19 1.57, 32 0" stroke="#1e1e1e" stroke-width="2" fill="none"></path></g><g stroke-linecap="round"><g transform="translate(165.88539257732657 112.09208200629925) rotate(0 89.98046348124643 0.15754950926898914)"><path d="M0.65 -0.97 C30.69 -0.66, 151.11 1.38, 181 1.4 M-0.47 1.14 C29.44 1.18, 150.64 0.06, 180.59 -0.15" stroke="#1e1e1e" stroke-width="2" fill="none"></path></g><g transform="translate(165.88539257732657 112.09208200629925) rotate(0 89.98046348124643 0.15754950926898914)"><path d="M157.17 8.59 C164.11 7.01, 176.06 2.17, 180.59 -0.15 M157.17 8.59 C162.42 7.32, 166.52 4.87, 180.59 -0.15" stroke="#1e1e1e" stroke-width="2" fill="none"></path></g><g transform="translate(165.88539257732657 112.09208200629925) rotate(0 89.98046348124643 0.15754950926898914)"><path d="M157.03 -8.51 C163.96 -3.87, 175.96 -2.49, 180.59 -0.15 M157.03 -8.51 C162.29 -6.3, 166.42 -5.26, 180.59 -0.15" stroke="#1e1e1e" stroke-width="2" fill="none"></path></g></g><mask></mask><g transform="translate(177.47512835292605 66.56027382756389) rotate(0 76.53995513916016 12.5)"><text x="0" y="0" font-family="Virgil, Segoe UI Emoji" font-size="20px" fill="#1e1e1e" text-anchor="start" style="white-space: pre;" direction="ltr" dominant-baseline="text-before-edge">A CONTAINS B</text></g><g stroke-linecap="round"><g transform="translate(181.60095612690736 267.50482605581897) rotate(0 92.41755745275088 0.44803141698366744)"><path d="M1.15 0.6 C31.92 0.6, 153.88 -0.02, 184.57 -0.01" stroke="#1e1e1e" stroke-width="2.5" fill="none" stroke-dasharray="8 10"></path></g><g transform="translate(181.60095612690736 267.50482605581897) rotate(0 92.41755745275088 0.44803141698366744)"><path d="M161.1 8.6 C169.06 5.38, 173.5 3.96, 184.57 -0.01" stroke="#1e1e1e" stroke-width="2.5" fill="none"></path></g><g transform="translate(181.60095612690736 267.50482605581897) rotate(0 92.41755745275088 0.44803141698366744)"><path d="M161.05 -8.5 C169.03 -6.65, 173.49 -3, 184.57 -0.01" stroke="#1e1e1e" stroke-width="2.5" fill="none"></path></g></g><mask></mask><g transform="translate(126.92142956624184 217.84719010310232) rotate(0 144.05990600585938 12.5)"><text x="0" y="0" font-family="Virgil, Segoe UI Emoji" font-size="20px" fill="#1e1e1e" text-anchor="start" style="white-space: pre;" direction="ltr" dominant-baseline="text-before-edge">A IMPLEMENTS/EXTENDS B</text></g><g transform="translate(141.5046060179535 96.16973472580395) rotate(0 6.55999755859375 12.5)"><text x="0" y="0" font-family="Virgil, Segoe UI Emoji" font-size="20px" fill="#1e1e1e" text-anchor="start" style="white-space: pre;" direction="ltr" dominant-baseline="text-before-edge">A</text></g><g transform="translate(364.6439453644763 96.46514005568326) rotate(0 12.269996643066406 12.5)"><text x="0" y="0" font-family="Virgil, Segoe UI Emoji" font-size="20px" fill="#1e1e1e" text-anchor="start" style="white-space: pre;" direction="ltr" dominant-baseline="text-before-edge">B </text></g><g transform="translate(146.5954245362076 253.51246026386875) rotate(0 6.55999755859375 12.5)"><text x="0" y="0" font-family="Virgil, Segoe UI Emoji" font-size="20px" fill="#1e1e1e" text-anchor="start" style="white-space: pre;" direction="ltr" dominant-baseline="text-before-edge">A</text></g><g transform="translate(384.02253500456084 253.83740612673606) rotate(0 7.269996643066406 12.5)"><text x="0" y="0" font-family="Virgil, Segoe UI Emoji" font-size="20px" fill="#1e1e1e" text-anchor="start" style="white-space: pre;" direction="ltr" dominant-baseline="text-before-edge">B</text></g><g stroke-linecap="round"><g transform="translate(1943.2812712629984 1393.6982588434798) rotate(0 88.7530710663691 62.67516415606622)"><path d="M0.66 -0.14 C30.24 20.87, 148.45 105.03, 177.96 125.79" stroke="#1e1e1e" stroke-width="2.5" fill="none" stroke-dasharray="8 10"></path></g><g transform="translate(1943.2812712629984 1393.6982588434798) rotate(0 88.7530710663691 62.67516415606622)"><path d="M153.85 119.19 C161.81 122.05, 170.97 123.94, 177.96 125.79" stroke="#1e1e1e" stroke-width="2.5" fill="none"></path></g><g transform="translate(1943.2812712629984 1393.6982588434798) rotate(0 88.7530710663691 62.67516415606622)"><path d="M163.73 105.23 C168.31 112.9, 174.1 119.54, 177.96 125.79" stroke="#1e1e1e" stroke-width="2.5" fill="none"></path></g></g><mask></mask><g stroke-linecap="round" transform="translate(2216.1932248033604 1163.5608830441167) rotate(0 202.6501503203857 113.53476418762239)"><path d="M32 0 C161.16 -1.55, 289.69 0.04, 373.3 0 M32 0 C156.39 0.85, 282.09 -0.03, 373.3 0 M373.3 0 C395.84 1.98, 405.45 10.29, 405.3 32 M373.3 0 C394.07 2.2, 405.04 12.86, 405.3 32 M405.3 32 C404.84 97.71, 404.37 160.85, 405.3 195.07 M405.3 32 C405.67 95.86, 405.86 159.46, 405.3 195.07 M405.3 195.07 C407.13 215.21, 393.84 227.5, 373.3 227.07 M405.3 195.07 C407.44 215.33, 393.5 229.24, 373.3 227.07 M373.3 227.07 C267.26 228.89, 161.14 228.63, 32 227.07 M373.3 227.07 C288.46 227.98, 202.27 227.44, 32 227.07 M32 227.07 C9.4 227.54, -1.5 217.38, 0 195.07 M32 227.07 C11.12 228.4, -1.91 217.92, 0 195.07 M0 195.07 C1.85 141.41, -0.47 89.09, 0 32 M0 195.07 C2.08 159.27, 0.65 121.98, 0 32 M0 32 C1.22 12.29, 12.6 -0.56, 32 0 M0 32 C-1.23 12.45, 11.54 -1.75, 32 0" stroke="#1e1e1e" stroke-width="2" fill="none"></path></g><g transform="translate(2252.48555113632 1186.8808020733902) rotate(0 112.05990600585938 12.5)"><text x="0" y="0" font-family="Virgil, Segoe UI Emoji" font-size="20px" fill="#1e1e1e" text-anchor="start" style="white-space: pre;" direction="ltr" dominant-baseline="text-before-edge">ExchangeMoveExecutor</text></g><g stroke-linecap="round"><g transform="translate(2364.4966696990596 1397.5804134694672) rotate(0 -81.78442587297297 62.138511140118794)"><path d="M1.14 0.79 C-25.89 21.27, -134.9 103.32, -162.48 124.01" stroke="#1e1e1e" stroke-width="2.5" fill="none" stroke-dasharray="8 10"></path></g><g transform="translate(2364.4966696990596 1397.5804134694672) rotate(0 -81.78442587297297 62.138511140118794)"><path d="M-148.84 103.06 C-151.09 110.77, -156.61 113.42, -162.48 124.01" stroke="#1e1e1e" stroke-width="2.5" fill="none"></path></g><g transform="translate(2364.4966696990596 1397.5804134694672) rotate(0 -81.78442587297297 62.138511140118794)"><path d="M-138.56 116.73 C-143.77 120.78, -152.12 119.66, -162.48 124.01" stroke="#1e1e1e" stroke-width="2.5" fill="none"></path></g></g><mask></mask><g stroke-linecap="round"><g transform="translate(1606.2522405359932 882.1350022470999) rotate(0 121.6873022216289 129.56477768507767)"><path d="M-0.4 -0.14 C40.42 42.99, 203.76 215.01, 244.27 258.34 M1.59 -1.26 C42.39 42.04, 203.19 216.28, 243.79 259.47" stroke="#1e1e1e" stroke-width="2" fill="none"></path></g><g transform="translate(1606.2522405359932 882.1350022470999) rotate(0 121.6873022216289 129.56477768507767)"><path d="M221.52 248.09 C226.64 252.41, 230.96 252.49, 243.79 259.47 M221.52 248.09 C230.31 252.16, 237.94 255.69, 243.79 259.47" stroke="#1e1e1e" stroke-width="2" fill="none"></path></g><g transform="translate(1606.2522405359932 882.1350022470999) rotate(0 121.6873022216289 129.56477768507767)"><path d="M234.04 236.44 C236.08 243.54, 237.37 246.44, 243.79 259.47 M234.04 236.44 C238.37 244.57, 241.5 252.29, 243.79 259.47" stroke="#1e1e1e" stroke-width="2" fill="none"></path></g></g><mask></mask><g stroke-linecap="round"><g transform="translate(1774.5446569682526 891.656900713544) rotate(0 369.212495242298 134.7442178022955)"><path d="M0.36 0.86 C123.7 45.85, 616.42 225.82, 739.32 270.46 M-0.92 0.26 C122.42 44.9, 615.91 223.95, 738.84 268.85" stroke="#1e1e1e" stroke-width="2" fill="none"></path></g><g transform="translate(1774.5446569682526 891.656900713544) rotate(0 369.212495242298 134.7442178022955)"><path d="M713.84 268.85 C721.16 270.26, 727.26 267.66, 738.84 268.85 M713.84 268.85 C720.47 269.43, 725.95 269.13, 738.84 268.85" stroke="#1e1e1e" stroke-width="2" fill="none"></path></g><g transform="translate(1774.5446569682526 891.656900713544) rotate(0 369.212495242298 134.7442178022955)"><path d="M719.68 252.78 C725.69 258, 730.41 259.19, 738.84 268.85 M719.68 252.78 C725.03 257.11, 729.13 260.61, 738.84 268.85" stroke="#1e1e1e" stroke-width="2" fill="none"></path></g></g><mask></mask><g mask="url(#mask-BdsvN8p2DVy1FmFjPBtqg)" stroke-linecap="round"><g transform="translate(2777.711616705497 1332.3327249832112) rotate(0 -242.005893081483 98.68507386835756)"><path d="M-0.97 -0.23 C-81.82 32.64, -404.63 163.72, -485.01 196.67" stroke="#1e1e1e" stroke-width="2.5" fill="none" stroke-dasharray="8 10"></path></g><g transform="translate(2777.711616705497 1332.3327249832112) rotate(0 -242.005893081483 98.68507386835756)"><path d="M-466.48 179.88 C-472.59 183.19, -479.02 191.25, -485.01 196.67" stroke="#1e1e1e" stroke-width="2.5" fill="none"></path></g><g transform="translate(2777.711616705497 1332.3327249832112) rotate(0 -242.005893081483 98.68507386835756)"><path d="M-460.03 195.72 C-468.03 194.14, -476.43 197.38, -485.01 196.67" stroke="#1e1e1e" stroke-width="2.5" fill="none"></path></g></g><mask id="mask-BdsvN8p2DVy1FmFjPBtqg"><rect x="0" y="0" fill="#fff" width="3361.723402868463" height="1629.7028727199263"></rect><rect x="2437.2058075473537" y="1393.5177988515688" fill="#000" width="196.9998321533203" height="75" opacity="1"></rect></mask><g transform="translate(2437.2058075473537 1393.5177988515684) rotate(0 97.5140474360436 37.03484879918403)"><text x="98.49991607666016" y="0" font-family="Virgil, Segoe UI Emoji" font-size="20px" fill="#1e1e1e" text-anchor="middle" style="white-space: pre;" direction="ltr" dominant-baseline="text-before-edge">pieces contain</text><text x="98.49991607666016" y="25" font-family="Virgil, Segoe UI Emoji" font-size="20px" fill="#1e1e1e" text-anchor="middle" style="white-space: pre;" direction="ltr" dominant-baseline="text-before-edge">logic of normal move</text><text x="98.49991607666016" y="50" font-family="Virgil, Segoe UI Emoji" font-size="20px" fill="#1e1e1e" text-anchor="middle" style="white-space: pre;" direction="ltr" dominant-baseline="text-before-edge">execution</text></g><g stroke-linecap="round"><g transform="translate(2811.228454598532 1429.8361775320516) rotate(0 -4.48525749172768 -53.6849952834051)"><path d="M0.83 0.23 C-0.89 -17.3, -7.96 -88.39, -9.74 -106.3" stroke="#1e1e1e" stroke-width="2.5" fill="none" stroke-dasharray="8 10"></path></g><g transform="translate(2811.228454598532 1429.8361775320516) rotate(0 -4.48525749172768 -53.6849952834051)"><path d="M1.09 -83.77 C-2.07 -92.79, -4.42 -100.77, -9.74 -106.3" stroke="#1e1e1e" stroke-width="2.5" fill="none"></path></g><g transform="translate(2811.228454598532 1429.8361775320516) rotate(0 -4.48525749172768 -53.6849952834051)"><path d="M-15.92 -82.08 C-13.17 -91.8, -9.62 -100.37, -9.74 -106.3" stroke="#1e1e1e" stroke-width="2.5" fill="none"></path></g></g><mask></mask><g stroke-linecap="round"><g transform="translate(2993.552544315656 1442.5189130282045) rotate(0 -58.18912278356197 -57.56465194915381)"><path d="M0.45 -0.11 C-18.56 -19.58, -95.57 -97.16, -115.2 -116.27" stroke="#1e1e1e" stroke-width="2.5" fill="none" stroke-dasharray="8 10"></path></g><g transform="translate(2993.552544315656 1442.5189130282045) rotate(0 -58.18912278356197 -57.56465194915381)"><path d="M-92.51 -105.78 C-97.37 -105.87, -103.71 -111.54, -115.2 -116.27" stroke="#1e1e1e" stroke-width="2.5" fill="none"></path></g><g transform="translate(2993.552544315656 1442.5189130282045) rotate(0 -58.18912278356197 -57.56465194915381)"><path d="M-104.56 -93.65 C-107.02 -96.26, -110.9 -104.4, -115.2 -116.27" stroke="#1e1e1e" stroke-width="2.5" fill="none"></path></g></g><mask></mask><g stroke-linecap="round"><g transform="translate(2547.4628557532114 744.59428065528) rotate(0 139.95319845250106 218.41777749061794)"><path d="M-0.68 0.76 C46.05 73.48, 233.45 363.09, 280.27 435.94 M1.17 0.11 C47.77 73, 233.09 364.35, 279.52 437.01" stroke="#1e1e1e" stroke-width="2" fill="none"></path></g><g transform="translate(2547.4628557532114 744.59428065528) rotate(0 139.95319845250106 218.41777749061794)"><path d="M259.68 421.79 C266.73 427, 269.82 431.51, 279.52 437.01 M259.68 421.79 C266.33 428.17, 274.68 434.15, 279.52 437.01" stroke="#1e1e1e" stroke-width="2" fill="none"></path></g><g transform="translate(2547.4628557532114 744.59428065528) rotate(0 139.95319845250106 218.41777749061794)"><path d="M274.1 412.6 C276.87 420.43, 275.71 427.66, 279.52 437.01 M274.1 412.6 C275.22 422.49, 278.03 432, 279.52 437.01" stroke="#1e1e1e" stroke-width="2" fill="none"></path></g></g><mask></mask><g transform="translate(458.76993030836354 1435.4981130214053) rotate(0 110.40991973876953 62.5)"><text x="0" y="0" font-family="Virgil, Segoe UI Emoji" font-size="20px" fill="#1e1e1e" text-anchor="start" style="white-space: pre;" direction="ltr" dominant-baseline="text-before-edge">Represents normally</text><text x="0" y="25" font-family="Virgil, Segoe UI Emoji" font-size="20px" fill="#1e1e1e" text-anchor="start" style="white-space: pre;" direction="ltr" dominant-baseline="text-before-edge">moving a piece from A</text><text x="0" y="50" font-family="Virgil, Segoe UI Emoji" font-size="20px" fill="#1e1e1e" text-anchor="start" style="white-space: pre;" direction="ltr" dominant-baseline="text-before-edge">to B that may include</text><text x="0" y="75" font-family="Virgil, Segoe UI Emoji" font-size="20px" fill="#1e1e1e" text-anchor="start" style="white-space: pre;" direction="ltr" dominant-baseline="text-before-edge">killing of opposition</text><text x="0" y="100" font-family="Virgil, Segoe UI Emoji" font-size="20px" fill="#1e1e1e" text-anchor="start" style="white-space: pre;" direction="ltr" dominant-baseline="text-before-edge">pieces</text></g></svg>